<svg id="visual" viewBox="0 0 900 600" width="900" height="600" xmlns="http://www.w3.org/2000/svg" xmlns:xlink="http://www.w3.org/1999/xlink" version="1.1"><g stroke-width="1" stroke-linejoin="bevel"><path d="M461 265L610 293L502 238Z" fill="#151617" stroke="#151617"></path><path d="M461 265L610 352L610 293Z" fill="#141414" stroke="#141414"></path><path d="M398 495L537 520L610 352Z" fill="#171819" stroke="#171819"></path><path d="M461 265L398 495L610 352Z" fill="#151516" stroke="#151516"></path><path d="M461 265L303 365L398 495Z" fill="#121212" stroke="#121212"></path><path d="M301 198L303 365L461 265Z" fill="#131314" stroke="#131314"></path><path d="M610 352L749 243L610 293Z" fill="#121212" stroke="#121212"></path><path d="M610 293L551 79L502 238Z" fill="#141415" stroke="#141415"></path><path d="M808 400L749 243L610 352Z" fill="#161617" stroke="#161617"></path><path d="M749 243L738 210L610 293Z" fill="#161617" stroke="#161617"></path><path d="M738 210L551 79L610 293Z" fill="#171819" stroke="#171819"></path><path d="M502 238L301 198L461 265Z" fill="#151516" stroke="#151516"></path><path d="M460 0L301 198L502 238Z" fill="#171819" stroke="#171819"></path><path d="M409 600L540 600L537 520Z" fill="#131314" stroke="#131314"></path><path d="M537 520L808 400L610 352Z" fill="#161617" stroke="#161617"></path><path d="M842 600L808 400L537 520Z" fill="#131313" stroke="#131313"></path><path d="M749 243L900 272L738 210Z" fill="#171718" stroke="#171718"></path><path d="M398 495L409 600L537 520Z" fill="#141415" stroke="#141415"></path><path d="M331 600L409 600L398 495Z" fill="#141414" stroke="#141414"></path><path d="M604 0L460 0L551 79Z" fill="#151617" stroke="#151617"></path><path d="M551 79L460 0L502 238Z" fill="#171819" stroke="#171819"></path><path d="M738 210L604 0L551 79Z" fill="#171718" stroke="#171718"></path><path d="M171 441L331 600L398 495Z" fill="#131314" stroke="#131314"></path><path d="M460 0L370 0L301 198Z" fill="#161617" stroke="#161617"></path><path d="M808 400L900 272L749 243Z" fill="#151617" stroke="#151617"></path><path d="M738 210L768 0L604 0Z" fill="#131313" stroke="#131313"></path><path d="M112 321L171 441L303 365Z" fill="#151617" stroke="#151617"></path><path d="M303 365L171 441L398 495Z" fill="#131314" stroke="#131314"></path><path d="M112 321L303 365L301 198Z" fill="#141414" stroke="#141414"></path><path d="M900 102L768 0L738 210Z" fill="#131314" stroke="#131314"></path><path d="M842 600L900 496L808 400Z" fill="#121212" stroke="#121212"></path><path d="M808 400L900 496L900 272Z" fill="#131313" stroke="#131313"></path><path d="M171 69L112 321L301 198Z" fill="#151516" stroke="#151516"></path><path d="M0 498L216 600L171 441Z" fill="#151617" stroke="#151617"></path><path d="M171 441L216 600L331 600Z" fill="#161718" stroke="#161718"></path><path d="M540 600L842 600L537 520Z" fill="#161617" stroke="#161617"></path><path d="M900 272L900 102L738 210Z" fill="#131313" stroke="#131313"></path><path d="M370 0L171 69L301 198Z" fill="#121212" stroke="#121212"></path><path d="M842 600L900 600L900 496Z" fill="#161617" stroke="#161617"></path><path d="M900 102L900 0L768 0Z" fill="#131314" stroke="#131314"></path><path d="M370 0L111 0L171 69Z" fill="#171819" stroke="#171819"></path><path d="M0 213L0 268L112 321Z" fill="#171819" stroke="#171819"></path><path d="M0 213L112 321L171 69Z" fill="#161617" stroke="#161617"></path><path d="M112 321L0 498L171 441Z" fill="#161617" stroke="#161617"></path><path d="M111 0L0 213L171 69Z" fill="#141415" stroke="#141415"></path><path d="M0 268L0 498L112 321Z" fill="#141414" stroke="#141414"></path><path d="M0 498L0 600L216 600Z" fill="#131313" stroke="#131313"></path><path d="M111 0L0 0L0 213Z" fill="#151617" stroke="#151617"></path></g></svg>